<svg xmlns="http://www.w3.org/2000/svg" viewBox="0 0 132 28" fill="none" role="img" aria-label="Northwind Labs">
  <g fill="currentColor">
    <path d="M4 21V7h2.4l6 9.6V7H14v14h-2.4l-6-9.6V21H4z"/>
    <path d="M17.5 14a4.5 4.5 0 119 0 4.5 4.5 0 01-9 0zm2 0a2.5 2.5 0 105 0 2.5 2.5 0 00-5 0z"/>
    <path d="M30 21v-7h-2v-2h2V9.5c0-1.7 1-2.7 2.7-2.7.8 0 1.5.1 2 .3l-.3 1.8a3 3 0 00-1.2-.2c-.7 0-1.1.3-1.1 1.1V12H35v2h-2.9v7H30z"/>
  </g>
  <text x="42" y="18" font-family="ui-sans-serif,system-ui,sans-serif" font-size="13" font-weight="600" letter-spacing="0.02em" fill="currentColor">Northwind</text>
</svg>
